<svg xmlns="http://www.w3.org/2000/svg" viewBox="0 0 400 170.44"><defs><style>.cls-1{fill:#0079c0 !important;}.cls-2{fill:#ed3024;}.cls-3{fill:#005cb9;}.cls-4{fill:#fff;}</style></defs><g id="Layer_2" data-name="Layer 2"><g id="Layer_1-2" data-name="Layer 1"><path class="cls-1" d="M45.07,22.75q2.58,1.44,2.58,3.76,0,3.25-4.11,3.62a9.94,9.94,0,0,1-2.25-.64Q37,27.23,35.85,26.77a16.19,16.19,0,0,0-6-1c-.48,0-1.06,0-1.77.08-2.21.15-4.75,1.37-7.64,3.64a37.06,37.06,0,0,0-6.08,6.12,20,20,0,0,0-4,7.52,38.94,38.94,0,0,0-1.14,8,22.25,22.25,0,0,0,1.83,9.32,19.3,19.3,0,0,0,4.55,6.77,17.81,17.81,0,0,0,6.17,3.83Q28,73.27,37.6,73.22a9.11,9.11,0,0,0,4.61-.94,28.28,28.28,0,0,0,3.52-2.87,12.55,12.55,0,0,1,3.77-2.52,9.59,9.59,0,0,1,2-.3A5.45,5.45,0,0,1,55.2,67.9a4.31,4.31,0,0,1,1.54,3.44c0,1.57-.83,3.12-2.49,4.67Q47.82,82,36.13,82a56.5,56.5,0,0,1-20-3.84,16.66,16.66,0,0,1-5.82-4A31.13,31.13,0,0,1,2.4,59.42a35.19,35.19,0,0,1-1.2-9.31A49.08,49.08,0,0,1,1.84,43,27.29,27.29,0,0,1,5.37,34a34,34,0,0,1,15.14-14,22.08,22.08,0,0,1,9.35-2.14q6.27,0,15.21,5"></path><path class="cls-1" d="M16.59,77a15.74,15.74,0,0,1-5.4-3.7A30.08,30.08,0,0,1,3.56,59.12a34,34,0,0,1-1.16-9A48,48,0,0,1,3,43.25a25.9,25.9,0,0,1,3.39-8.66A32.86,32.86,0,0,1,21,21a21.15,21.15,0,0,1,8.85-2c4,0,8.87,1.62,14.63,4.81,1.76,1,2,2,2,2.71,0,1-.35,2.14-2.85,2.4a8.91,8.91,0,0,1-1.72-.46c-3-1.6-4.8-2.48-5.59-2.8a17.71,17.71,0,0,0-6.41-1.12L28,24.61c-2.47.17-5.18,1.45-8.29,3.9a38,38,0,0,0-6.29,6.33,21.11,21.11,0,0,0-4.18,8,40,40,0,0,0-1.18,8.29A23.54,23.54,0,0,0,10,60.92a20.43,20.43,0,0,0,4.84,7.18,19.05,19.05,0,0,0,6.57,4.07c4.24,1.53,9.69,2.29,16.19,2.25a10.28,10.28,0,0,0,5.23-1.11,30.07,30.07,0,0,0,3.69-3A11.64,11.64,0,0,1,49.87,68a8.73,8.73,0,0,1,1.66-.26,4.29,4.29,0,0,1,2.9,1,3.15,3.15,0,0,1,1.12,2.53,5.43,5.43,0,0,1-2.12,3.79c-4,3.74-9.85,5.64-17.3,5.64A55.58,55.58,0,0,1,16.59,77M20,18.84A35.23,35.23,0,0,0,4.34,33.37,28.39,28.39,0,0,0,.66,42.84,48.51,48.51,0,0,0,0,50.08a35.86,35.86,0,0,0,1.23,9.63A32.36,32.36,0,0,0,9.5,75a17.75,17.75,0,0,0,6.25,4.24,57.93,57.93,0,0,0,20.38,3.92c8.07,0,14.44-2.11,18.93-6.27,1.91-1.78,2.88-3.65,2.88-5.55A5.48,5.48,0,0,0,56,67a6.66,6.66,0,0,0-4.45-1.6,10.56,10.56,0,0,0-2.31.34l-.07,0-.07,0a13.56,13.56,0,0,0-4.15,2.75,27.81,27.81,0,0,1-3.34,2.74,7.81,7.81,0,0,1-4,.76c-6.22,0-11.38-.67-15.36-2.1a16.72,16.72,0,0,1-5.74-3.57A18,18,0,0,1,12.22,60a21.1,21.1,0,0,1-1.74-8.83,37.24,37.24,0,0,1,1.11-7.8,18.91,18.91,0,0,1,3.74-7,35.09,35.09,0,0,1,5.89-5.92c2.67-2.11,5-3.25,7-3.39l1.69-.07a15.19,15.19,0,0,1,5.54,1c.69.27,2.43,1.14,5.31,2.66a9.72,9.72,0,0,0,2.56.75l.18,0h.18c4.52-.4,5.2-3.19,5.2-4.82,0-1.38-.56-3.33-3.19-4.8h0c-6.12-3.39-11.43-5.1-15.79-5.1A23.51,23.51,0,0,0,20,18.84"></path><path class="cls-1" d="M78.35,22.23a64.89,64.89,0,0,0-1,9c.19,3.35.42,5.84.66,7.48a19.13,19.13,0,0,1,9.71-2.52,18.15,18.15,0,0,1,11.62,3.84,12.76,12.76,0,0,1,5.18,10.34q0,3.38-.14,6.27c.24,4.65.91,7.91,2,9.75a5.46,5.46,0,0,1,.8,2.82,4.79,4.79,0,0,1-1.34,3.36,4.68,4.68,0,0,1-3.26,1.55,7.69,7.69,0,0,1-5.43-3.77,14.91,14.91,0,0,1-2-7.25,42.93,42.93,0,0,1,.34-4.8c.09-2.09.13-3.74.13-4.93q0-9.24-8-9.24a12,12,0,0,0-9.19,4,8.17,8.17,0,0,0-2.14,4.31c-.35,2.8-.89,7-1.59,12.56-.23,1.73-.54,3.6-1,5.61q-.47,2.3-1.57,6a3.78,3.78,0,0,1-3.45,3c-2.27-.85-3.48-2.62-3.61-5.31q0-1.52,2.06-13.47.64-3.94.9-7.63c-2-.18-3.12-1.49-3.3-4,.18-2.41,1.52-4.4,4-5.95,0-.39,0-1,.08-1.74s.08-1.35.08-1.73q0-2.61-.4-7.22c-.39-3.69-.58-6-.55-7a46.37,46.37,0,0,1,.47-5.17c.44-3.16,2-4.74,4.84-4.74A4.89,4.89,0,0,1,77.82,18a5.25,5.25,0,0,1,.71,2.76,4.57,4.57,0,0,1-.18,1.52"></path><path class="cls-1" d="M69.47,44.22l.53-.33.11-2.33.09-1.82c0-1.78-.14-4.17-.41-7.32-.36-3.44-.55-5.68-.55-6.66v-.17a44,44,0,0,1,.47-5c.45-3.29,2.19-3.71,3.65-3.71a3.68,3.68,0,0,1,3.44,1.75,4,4,0,0,1,.53,2.12,4,4,0,0,1-.1,1.11l0,.09V22a64.64,64.64,0,0,0-1,9.19v.13c.2,3.36.42,5.91.68,7.59l.26,1.73,1.52-.87a17.93,17.93,0,0,1,9.11-2.36A17.09,17.09,0,0,1,98.6,41a11.57,11.57,0,0,1,4.73,9.41v.91c0,1.89,0,3.66-.14,5.28v.13c.25,4.9,1,8.27,2.16,10.3a4.24,4.24,0,0,1,.63,2.21,3.57,3.57,0,0,1-1,2.54,3.51,3.51,0,0,1-2.34,1.14,6.46,6.46,0,0,1-4.45-3.14,13.83,13.83,0,0,1-1.81-6.68,1.15,1.15,0,0,1,0-.2c0-.57.06-1.83.34-4.44,0-.08.14-5.06.14-5.06,0-8.63-5-10.44-9.17-10.44A13.19,13.19,0,0,0,77.6,47.34a9.41,9.41,0,0,0-2.45,4.94s-1.59,12.59-1.59,12.59c-.21,1.64-.52,3.51-.93,5.53-.31,1.48-.83,3.45-1.54,5.83A2.62,2.62,0,0,1,69,78.29a4.23,4.23,0,0,1-2.58-4.09c0-.74.43-3.66,2-13.24.43-2.66.74-5.26.92-7.75L69.41,52l-1.17-.1c-1-.08-2-.49-2.2-2.75.17-2,1.29-3.62,3.43-5m-2.13-24a46,46,0,0,0-.49,5.3v.22c0,1.11.18,3.32.56,6.91.26,3,.39,5.41.39,7.09,0,0-.11,2.33-.13,2.86a8.54,8.54,0,0,0-4,6.47v.18c.23,3.15,1.79,4.36,3.2,4.82-.18,2.11-.43,4.28-.79,6.5C64,72.59,64,73.79,64,74.19v.1a6.64,6.64,0,0,0,4.39,6.37l.26.1.27,0a5,5,0,0,0,4.49-3.81c.74-2.45,1.28-4.49,1.6-6,.42-2.11.73-4,1-5.7l1.6-12.56A6.83,6.83,0,0,1,79.36,49a10.77,10.77,0,0,1,8.31-3.6c4.62,0,6.77,2.55,6.77,8l-.13,4.88A46.3,46.3,0,0,0,94,63.17,16.11,16.11,0,0,0,96.12,71a8.84,8.84,0,0,0,6.23,4.34l.15,0h.15a5.89,5.89,0,0,0,4.07-1.92,6,6,0,0,0,1.65-4.18,6.64,6.64,0,0,0-1-3.43c-1-1.66-1.6-4.74-1.83-9.16.1-1.65.15-3.43.15-5.33,0-.31,0-.62,0-.93a14,14,0,0,0-5.63-11.27A19.41,19.41,0,0,0,87.72,35,20.59,20.59,0,0,0,79,36.93q-.24-2.22-.44-5.67a62.09,62.09,0,0,1,1-8.8l0,.18a5.93,5.93,0,0,0,.24-1.93,6.25,6.25,0,0,0-.89-3.38,6.1,6.1,0,0,0-5.47-2.89c-2.39,0-5.37,1-6,5.78"></path><path class="cls-1" d="M127,17.94c.86.21,1.3,1.6,1.3,4.17a11.81,11.81,0,0,1-.71,4.71,4.87,4.87,0,0,1-3.72,2.66q-2.2,0-4.21-4a6,6,0,0,1-.78-2.4q0-2.41,4.16-4.44a7.07,7.07,0,0,1,3-.84,2.49,2.49,0,0,1,.5.08,2,2,0,0,0,.46.07m-.62,17.84a12.25,12.25,0,0,1,1.78,6.43,59.7,59.7,0,0,1-1.81,12.13q-.85,3.87-1.19,5.75a38.8,38.8,0,0,0-.63,5.82,23.22,23.22,0,0,0,.59,3.38,15.81,15.81,0,0,1,.49,3.38,3.25,3.25,0,0,1-1.51,2.72A5.78,5.78,0,0,1,121,76.45q-5.6-.58-5.92-8.93a85.74,85.74,0,0,1,1.25-8.77l1.38-8A32.59,32.59,0,0,0,118,45.5c0-.33,0-1-.09-2.11-.08-1.36-.14-2.47-.18-3.36a6.14,6.14,0,0,1,1.39-4.58,4.36,4.36,0,0,1,3.35-1.52,4.13,4.13,0,0,1,3.84,1.85"></path><path class="cls-1" d="M117.49,59l1.39-8a35,35,0,0,0,.34-5.43l-.09-2.18L119,40c0-.14,0-.29,0-.43a4.68,4.68,0,0,1,1.09-3.3,3.18,3.18,0,0,1,2.46-1.12,3,3,0,0,1,2.82,1.27,11.2,11.2,0,0,1,1.6,5.81,59.8,59.8,0,0,1-1.77,11.86s-1.21,5.8-1.21,5.8a40,40,0,0,0-.65,6V66a24.63,24.63,0,0,0,.62,3.57,15.25,15.25,0,0,1,.46,3.11,2,2,0,0,1-1,1.75,4.67,4.67,0,0,1-2.38.83c-1.23-.13-4.44-.7-4.72-7.72.13-1.82.54-4.7,1.23-8.56m.76-24.32a7.3,7.3,0,0,0-1.7,5.45s.19,3.37.19,3.37l.08,2a32.63,32.63,0,0,1-.31,5l-1.38,8a89.4,89.4,0,0,0-1.27,8.89v.12c.29,7.76,4,9.76,7,10.08h.2a7,7,0,0,0,3.69-1.28,4.42,4.42,0,0,0,2-3.7,17.26,17.26,0,0,0-.51-3.64,22.4,22.4,0,0,1-.56-3.13,39.83,39.83,0,0,1,.6-5.6l1.2-5.69a60.76,60.76,0,0,0,1.83-12.39,13.57,13.57,0,0,0-2-7.05h0a5.26,5.26,0,0,0-4.87-2.42,5.55,5.55,0,0,0-4.24,1.9"></path><path class="cls-1" d="M126.67,19.11h0l.31,0-.28,0m-6,5.83a4.8,4.8,0,0,1-.66-1.88c0-1.37,1.9-2.58,3.48-3.35A5.91,5.91,0,0,1,126,19l.25.05.36.05c.08.11.45.73.45,3a10.18,10.18,0,0,1-.6,4.2,3.66,3.66,0,0,1-2.71,2c-.92-.06-2-1.22-3-3.32m1.77-7.39c-3.2,1.56-4.82,3.42-4.82,5.51a6.73,6.73,0,0,0,.91,3c1.56,3.14,3.29,4.67,5.27,4.67h.12l.12,0a6.06,6.06,0,0,0,4.56-3.32,12.64,12.64,0,0,0,.83-5.23c0-2.06-.23-4.85-2.22-5.33h0l-.24,0-.17,0c-.06,0-.81-.11-.81-.11a8.14,8.14,0,0,0-3.53.95"></path><path class="cls-1" d="M146,22.23q-.23,6.24-.22,7.47A190.73,190.73,0,0,0,148,57.17l1.54,10.58a46.08,46.08,0,0,1,.4,6.16c0,3.49-1.2,5.38-3.6,5.63a5.42,5.42,0,0,1-3.21-1.39,3.89,3.89,0,0,1-1.53-3,94.07,94.07,0,0,0-1.49-13.87Q138,48.12,137.84,47.05a116.38,116.38,0,0,1-1-16.12c.07-2,.16-4.51.27-7.56a5.12,5.12,0,0,1,1.34-3.67,3.88,3.88,0,0,1,2.86-1.24,5,5,0,0,1,3.32,1.1A3.26,3.26,0,0,1,146,22.23"></path><path class="cls-1" d="M138.11,30.1l.24-6.69a4.06,4.06,0,0,1,1-2.86,2.66,2.66,0,0,1,2-.89,3.84,3.84,0,0,1,2.56.83,2.06,2.06,0,0,1,.87,1.67s-.22,7.54-.22,7.54a191.86,191.86,0,0,0,2.25,27.65l1.53,10.57a45.31,45.31,0,0,1,.4,6c0,3.91-1.62,4.32-2.39,4.42a4.34,4.34,0,0,1-2.45-1.08,2.75,2.75,0,0,1-1.11-2.14A95.42,95.42,0,0,0,141.29,61c-1.42-8.69-2.18-13.44-2.26-14.12a118.13,118.13,0,0,1-1-14.54c0-.48,0-1,0-1.44l0-.84m-.47-11.24A6.36,6.36,0,0,0,136,23.34s-.24,6.67-.24,6.67l0,.87a117.79,117.79,0,0,0,1,16.32c.08.71.82,5.37,2.27,14.23a93,93,0,0,1,1.48,13.68,5.1,5.1,0,0,0,1.94,4,6.75,6.75,0,0,0,3.9,1.68h.22c2.14-.23,4.68-1.59,4.68-6.82a47,47,0,0,0-.42-6.32S149.19,57,149.19,57A190,190,0,0,1,147,29.7l.22-7.45a4.43,4.43,0,0,0-1.75-3.61,6.23,6.23,0,0,0-4.08-1.37,5.09,5.09,0,0,0-3.72,1.59"></path><path class="cls-1" d="M181.27,41.37A13,13,0,0,0,176,40q-7.05,0-10,8.92a24.27,24.27,0,0,0-1.27,7.63c.78,5.36,3.15,9.42,7.15,12.17a10.34,10.34,0,0,0,6,2,9.77,9.77,0,0,0,2.18-.23,21.32,21.32,0,0,0,7.63-3.4A14.94,14.94,0,0,0,193,60.66a38.15,38.15,0,0,0-1.49-10.9,3.78,3.78,0,0,0-1,.15A6.67,6.67,0,0,1,187,47.7c-.2-.23-1.06-1.35-2.56-3.37a9.31,9.31,0,0,0-3.19-3m18.91-22.9q-.68,13.22-.67,12.3a126.91,126.91,0,0,0,1.41,18,26.91,26.91,0,0,1,1.13,6.46,16.19,16.19,0,0,1-.8,4.72,46.42,46.42,0,0,0,.49,5.6,46.1,46.1,0,0,1,.49,5.6c0,3.11-1.64,4.82-4.92,5.15-2.14-.4-3.41-2.06-3.79-5q-6,6.06-16.33,6.32a35.39,35.39,0,0,1-5.63-.81c-7.2-1.89-11.92-6.54-14.17-14a28.47,28.47,0,0,1-1.21-7.74,25.28,25.28,0,0,1,2.48-10.74,21.76,21.76,0,0,1,6.57-8.59,16.23,16.23,0,0,1,10.11-3.46,37,37,0,0,1,6.28.78,3.27,3.27,0,0,1,2-.78q3.31,0,7.41,4.24-.32-3.53-.8-10.53l.14-2.07.26-3.21c0-.47.06-1.18.12-2.12q.25-5.14,4.43-5.15a5.07,5.07,0,0,1,3.55,1.38,4.48,4.48,0,0,1,1.45,3.61"></path><path class="cls-1" d="M191.82,20.85s.07-1.28.07-1.28l.05-.87c.18-3.54,1.74-4,3.24-4a3.88,3.88,0,0,1,2.74,1.06A3.24,3.24,0,0,1,199,18.21c0,.07,0,.14,0,.21-.54,10.76-.64,12.09-.65,12.24v.11A129,129,0,0,0,199.73,49v.07l0,.07a25.47,25.47,0,0,1,1.09,6.14,15.42,15.42,0,0,1-.74,4.37l-.06.17V60a48.16,48.16,0,0,0,.5,5.76,45.84,45.84,0,0,1,.48,5.44c0,2.42-1.15,3.62-3.69,3.93-1-.24-2.25-1-2.63-3.93l-.32-2.43-1.72,1.75c-3.74,3.78-8.94,5.78-15.45,6a35.29,35.29,0,0,1-5.36-.77c-6.83-1.79-11.19-6.1-13.33-13.18a27.29,27.29,0,0,1-1.15-7.43v-.32a24.7,24.7,0,0,1,2.37-9.9,20.75,20.75,0,0,1,6.2-8.13,15.21,15.21,0,0,1,9.39-3.21,36.59,36.59,0,0,1,6.06.76l.52.1.42-.33a2.19,2.19,0,0,1,1.28-.53c1.87,0,4.07,1.3,6.55,3.87l2.31,2.39s-1-13.59-1-13.75.14-2,.14-2l.25-3.2m-2.27-2.28-.05.88-.07,1.22s-.25,3.2-.25,3.2L189,26s.34,4.51.58,7.59a9.8,9.8,0,0,0-6-2.51,4.33,4.33,0,0,0-2.21.73,36.57,36.57,0,0,0-6.07-.73,17.56,17.56,0,0,0-10.84,3.7,23.17,23.17,0,0,0-6.93,9.06A26.52,26.52,0,0,0,155,55.13a29.16,29.16,0,0,0,1.25,8.07C158.6,71,163.66,76,171.25,78a36.76,36.76,0,0,0,5.84.84h.13c6.34-.16,11.57-1.94,15.61-5.28a5.51,5.51,0,0,0,4.26,3.93l.17,0,.18,0c3.86-.39,6-2.64,6-6.34a49.33,49.33,0,0,0-.5-5.76,44.1,44.1,0,0,1-.47-5.32,17.76,17.76,0,0,0,.79-4.84,27.48,27.48,0,0,0-1.15-6.68,126,126,0,0,1-1.39-17.79c0-.22,0-.45,0-.66l.14-2.32.47-9.28c0-.11,0-.21,0-.32A5.65,5.65,0,0,0,199.56,14a6.3,6.3,0,0,0-4.38-1.7c-2,0-5.36.81-5.63,6.28"></path><path class="cls-1" d="M167.07,49.29c1.82-5.45,4.73-8.1,8.89-8.1a11.78,11.78,0,0,1,4.8,1.26,8.13,8.13,0,0,1,2.75,2.6c2.26,3.05,2.54,3.36,2.63,3.46a8,8,0,0,0,4.1,2.58l.22,0,.14,0a37.48,37.48,0,0,1,1.17,9.28A13.88,13.88,0,0,1,187,66.05a20.18,20.18,0,0,1-7.21,3.21,8.25,8.25,0,0,1-1.92.21,9.12,9.12,0,0,1-5.34-1.74c-3.72-2.57-5.88-6.26-6.62-11.28a22.83,22.83,0,0,1,1.2-7.16m-2.27-.76a25.3,25.3,0,0,0-1.34,8v.17c.82,5.68,3.4,10.05,7.66,13a11.61,11.61,0,0,0,6.7,2.16,10.66,10.66,0,0,0,2.46-.27A22.33,22.33,0,0,0,188.35,68a16.13,16.13,0,0,0,5.73-6.88l.1-.23v-.23a39,39,0,0,0-1.55-11.24l-.29-1-.85.15-.86.13a5.59,5.59,0,0,1-2.72-1.8c0-.06-.41-.48-2.48-3.28a10.57,10.57,0,0,0-3.65-3.33h0A14.1,14.1,0,0,0,176,38.79c-5.25,0-9,3.28-11.16,9.74"></path><path class="cls-1" d="M217,35.75a23,23,0,0,1,1.08,5c.2,1.28.31,2,.36,2.3q7.23-8.61,15.37-10.29c1.88,0,2.81,1.54,2.81,4.59,0,1.65-.45,2.59-1.36,2.83a21,21,0,0,0-5.85,3.1q-8.47,5.85-10,11.49a35.59,35.59,0,0,1-.84,8.7,22.4,22.4,0,0,0-.75,4.06c-.09,1.36-.15,3.07-.16,5.16,0,.64-.07,2.3-.19,5-.05,1.25-1.15,2-3.31,2.18-2.17-.2-3.49-.82-4-1.85a33.56,33.56,0,0,1-.49-5.07c.24-4.79.45-8.09.64-9.92A37.4,37.4,0,0,0,210,59a22,22,0,0,1,1.61-7.26q-.45-5.91-1.88-14.41c0-.83.58-1.53,1.75-2.08a6.86,6.86,0,0,1,2.84-.66c1.44,0,2.32.38,2.67,1.14"></path><path class="cls-1" d="M219.36,43.78c4.58-5.46,9.49-8.77,14.58-9.85.5,0,1.48.28,1.48,3.38,0,.94-.18,1.6-.46,1.68a21.42,21.42,0,0,0-6.23,3.26c-5.94,4.11-9.36,8.08-10.46,12.17l0,.15v.16a34.38,34.38,0,0,1-.8,8.39,23.3,23.3,0,0,0-.78,4.28c-.11,1.53-.16,3.29-.17,5.24,0,0-.18,4.94-.18,4.94,0,.66-1.14.92-2.11,1-1.57-.16-2.61-.56-2.86-1.13a41.48,41.48,0,0,1-.39-4.59c.23-4.67.44-8,.63-9.79V63a36.47,36.47,0,0,0-.37-4,21,21,0,0,1,1.51-6.77l.12-.27,0-.3c-.3-3.91-.93-8.74-1.86-14.36,0-.41.66-.77,1.05-1a5.8,5.8,0,0,1,2.33-.54c.86,0,1.45.16,1.58.44a20.64,20.64,0,0,1,1,4.64l.78,5,1.68-2.07m14.33-12.26-.12,0c-5,1-9.84,4-14.33,8.77a20.91,20.91,0,0,0-1.15-5.07h0c-.56-1.22-1.83-1.84-3.76-1.84a8,8,0,0,0-3.34.77c-2,1-2.45,2.25-2.45,3.16v.1l0,.1c.92,5.5,1.54,10.22,1.84,14.06a23.81,23.81,0,0,0-1.59,7.34v.23a32.85,32.85,0,0,1,.36,3.76c-.19,1.89-.41,5.21-.64,9.9V73c.29,4.86.45,5.21.6,5.52.65,1.44,2.26,2.28,4.92,2.53h.23c3.53-.34,4.34-2,4.39-3.33l.19-5c0-1.9.06-3.61.16-5.08a21.37,21.37,0,0,1,.71-3.83,36.83,36.83,0,0,0,.88-8.8c1-3.44,4.14-7,9.46-10.72a19.79,19.79,0,0,1,5.48-2.92c1-.27,2.25-1.18,2.25-4,0-5-2.51-5.79-4-5.79Z"></path><path class="cls-1" d="M270.12,50.85q0-1.1-2.71-3.72A26.39,26.39,0,0,0,263.72,44a12.26,12.26,0,0,0-6.78-1.9,14.23,14.23,0,0,0-11,5.07,17.72,17.72,0,0,0-4.63,11.49,10.61,10.61,0,0,1,.17,1.92,98.72,98.72,0,0,1,15.76-6q3.83-1,11.47-3.2c.87-.24,1.33-.45,1.39-.61M250.86,35.68a37,37,0,0,1,7.1-.81,18.27,18.27,0,0,1,11.17,3.47,32.12,32.12,0,0,1,4.41,4.06l.87,1c.67.72,1.55,1.68,2.65,2.9a8.22,8.22,0,0,1,2.17,5.48q0,5.19-5.8,6.61-4.28.78-12.77,2.48a59.85,59.85,0,0,0-16.21,6.41c2.57,4.79,7,7.93,13.31,9.43a36.41,36.41,0,0,0,8.9,1.13,66,66,0,0,0,12.25-1.65,3.41,3.41,0,0,1,2.73,1.37,4.55,4.55,0,0,1,1,2.94c0,1.78-.77,2.82-2.32,3.14A68.13,68.13,0,0,1,267,85.06q-19.6,0-28.83-14l-.81.33c-.75,0-1.5-.61-2.21-1.85a7.36,7.36,0,0,1-1.09-2.91,2.74,2.74,0,0,1,1.15-2.19,23.71,23.71,0,0,1-1-5.55q.26-11.08,7.42-18.26a17.67,17.67,0,0,1,9.25-4.9"></path><path class="cls-1" d="M258,36.07a17.16,17.16,0,0,1,10.45,3.23,30.64,30.64,0,0,1,4.24,3.92l.86,1,2.67,2.9A7,7,0,0,1,278,51.74c0,2.9-1.55,4.64-4.89,5.45l-12.72,2.47a61.47,61.47,0,0,0-16.56,6.53l-1,.58.56,1c2.72,5.08,7.46,8.46,14.08,10a38.34,38.34,0,0,0,9.2,1.16A67.87,67.87,0,0,0,279,77.37a2.19,2.19,0,0,1,1.75.9,3.4,3.4,0,0,1,.78,2.2c0,1.39-.55,1.79-1.37,2A67.49,67.49,0,0,1,267,83.87c-12.59,0-21.95-4.55-27.83-13.52l-.54-.83-1.4.58a2.91,2.91,0,0,1-1-1.21,6.46,6.46,0,0,1-.91-2.31c.15-.75.37-1.07.48-1.13l.9-.47-.32-1a23.09,23.09,0,0,1-.94-5.21c.16-7,2.54-12.85,7.06-17.37a16.36,16.36,0,0,1,8.64-4.58,36.72,36.72,0,0,1,6.86-.78m-7.33-1.57h0a18.91,18.91,0,0,0-9.86,5.24c-5,5-7.6,11.39-7.77,19.07v.12a25.88,25.88,0,0,0,.87,5,4.69,4.69,0,0,0-1,2.41l0,.16,0,.15a8.26,8.26,0,0,0,1.25,3.4c.93,1.61,2,2.44,3.24,2.44h.23l.18-.08C244.14,81.6,254,86.26,267,86.26a70.11,70.11,0,0,0,13.6-1.48,4,4,0,0,0,3.28-4.31,5.71,5.71,0,0,0-1.32-3.71,4.6,4.6,0,0,0-3.65-1.8h-.13l-.12,0a65.84,65.84,0,0,1-12,1.62A35.53,35.53,0,0,1,258,75.51c-5.45-1.31-9.44-3.94-11.9-7.81A59.16,59.16,0,0,1,260.92,62l12.72-2.46c5.62-1.38,6.78-5,6.78-7.8A9.4,9.4,0,0,0,278,45.48l-2.69-2.94-.85-.94a33.06,33.06,0,0,0-4.59-4.22A19.47,19.47,0,0,0,258,33.68a38.21,38.21,0,0,0-7.33.82"></path><path class="cls-1" d="M246.85,48a13,13,0,0,1,10.09-4.67,11.06,11.06,0,0,1,6.13,1.71A25.25,25.25,0,0,1,266.59,48a15.17,15.17,0,0,1,2,2.26l-.19.06L257,53.5a98.6,98.6,0,0,0-14.41,5.35.49.49,0,0,1,0-.12A16.39,16.39,0,0,1,246.85,48m-1.78-1.6a19,19,0,0,0-4.94,12.24v.14l0,.13a8.89,8.89,0,0,1,.15,1.7v1.89l1.7-.8a99,99,0,0,1,15.57-5.89l11.49-3.21c1.2-.34,1.9-.65,2.17-1.3l.09-.22v-.24c0-1.13-.92-2.5-3.07-4.58A27.18,27.18,0,0,0,264.36,43,13.42,13.42,0,0,0,256.94,41a15.42,15.42,0,0,0-11.87,5.46"></path><path class="cls-1" d="M296.36,36.74a11,11,0,0,1,2.58,5,32.41,32.41,0,0,1,14.41-3.6q9,0,13.48,5.66a14.84,14.84,0,0,1,2.85,7.13,25.88,25.88,0,0,1,.18,3.46q0,2-.32,7.33a29.55,29.55,0,0,0,1.32,5.67,21,21,0,0,1,1.1,5.53c0,3.14-1.48,4.82-4.43,5.06q-7.21-.75-7.28-14c.15-2.61.28-5.8.41-9.57a8.36,8.36,0,0,0-2.49-6A8.25,8.25,0,0,0,311.85,46q-5.62.18-11.7,4.27.6,6,.59,16.46c0,5.88-.16,9.5-.5,10.86s-1.71,2.13-4.11,2.32a7.25,7.25,0,0,1-3.24-.93c-1-.56-1.48-1.19-1.43-1.88q.94-12.44.94-15.85c0-2.12-.11-4.76-.33-7.9a3.37,3.37,0,0,1-2.24-.86,3,3,0,0,1-1.06-2.1,9.44,9.44,0,0,1,1.64-4A42.67,42.67,0,0,1,288.24,40a6.37,6.37,0,0,1,1.51-3.31,4.06,4.06,0,0,1,3.16-1.58,4.36,4.36,0,0,1,3.45,1.6"></path><path class="cls-1" d="M297.27,36h0m-6.61,1.55a2.86,2.86,0,0,1,2.25-1.16,3.22,3.22,0,0,1,2.55,1.19h0A10,10,0,0,1,297.78,42l.33,1.48,1.36-.67a31.27,31.27,0,0,1,13.88-3.48c5.66,0,9.76,1.7,12.54,5.21a13.62,13.62,0,0,1,2.61,6.55,25.25,25.25,0,0,1,.16,3.29c0,1.27-.1,3.58-.32,7.26v.16a31.89,31.89,0,0,0,1.37,5.94,19.73,19.73,0,0,1,1.05,5.17c0,2.49-1,3.64-3.26,3.85-1.65-.18-6-1-6.05-12.78l.4-9.51A9.57,9.57,0,0,0,319,47.55a9.46,9.46,0,0,0-7.21-2.71c-4,.13-8.1,1.64-12.33,4.48l-.6.4.08.71c.39,4,.59,9.45.59,16.34,0,7.19-.26,9.72-.47,10.57s-1.71,1.29-2.95,1.4a6.08,6.08,0,0,1-2.65-.76c-.57-.32-.82-.6-.82-.75h0c.63-8.44.94-13.66.94-15.94s-.11-4.84-.34-8l-.08-1.12h-1.12a2.11,2.11,0,0,1-1.44-.57,1.72,1.72,0,0,1-.62-1.16,8.1,8.1,0,0,1,1.4-3.31l.39-.56-.3-.62a42.7,42.7,0,0,1-2-6,5.12,5.12,0,0,1,1.18-2.51m-1.82-1.57a7.66,7.66,0,0,0-1.79,3.93l0,.24.06.25a48.6,48.6,0,0,0,2,6.07,10,10,0,0,0-1.5,3.85l0,.12v.12a4.17,4.17,0,0,0,1.47,2.92,4.55,4.55,0,0,0,1.88,1c.18,2.68.28,5,.28,6.9,0,2.22-.31,7.37-.94,15.76,0,.06,0,.12,0,.19,0,.81.39,1.91,2,2.83a8.69,8.69,0,0,0,3.75,1.08h.17c3-.23,4.72-1.31,5.18-3.23.23-.92.54-3.08.54-11.14,0-6.57-.18-11.85-.54-15.81a20.88,20.88,0,0,1,10.49-3.72,7,7,0,0,1,5.44,2,7.12,7.12,0,0,1,2.13,5.17l-.4,9.47c0,9.57,2.85,14.67,8.34,15.24h.22c3.57-.28,5.54-2.5,5.54-6.25A22,22,0,0,0,332,67a28,28,0,0,1-1.27-5.37c.22-3.65.31-6,.31-7.29a26.92,26.92,0,0,0-.18-3.63,16,16,0,0,0-3.1-7.7c-3.22-4.06-8.07-6.12-14.42-6.12a33.06,33.06,0,0,0-13.64,3.17,12.56,12.56,0,0,0-2.45-4.13,5.59,5.59,0,0,0-4.35-2,5.24,5.24,0,0,0-4.07,2"></path><path class="cls-1" d="M359.62,42q0,2.09,6,4.11c1.9.65,3.1,1.07,3.59,1.25q10.27,4,14.48,12.46a13.59,13.59,0,0,1,1.73,6,11.21,11.21,0,0,1-.85,4.12,10.84,10.84,0,0,1-3.49,3.75c-1.12,1.12-2.85,2.75-5.15,4.89A10.29,10.29,0,0,1,369,81q-13.32,0-19.62-9.85A2.81,2.81,0,0,1,349,70a3.64,3.64,0,0,1,1.42-2.7,4.35,4.35,0,0,1,2.87-1.25,1.69,1.69,0,0,1,1.51.65,18,18,0,0,0,5.31,5.18,13.68,13.68,0,0,0,7,2.38q3.24-.23,7-4a40.4,40.4,0,0,1,3-2.75,2.53,2.53,0,0,0,.81-1.92q0-4.34-7-9.58a24,24,0,0,0-6.45-3.46c-3.3-1.13-5.29-1.85-5.95-2.16a10.7,10.7,0,0,1-4.78-4,7.77,7.77,0,0,1-1-4.1,8.34,8.34,0,0,1,2.63-6.25c1.85-1.77,4.43-2.71,7.76-2.85a87,87,0,0,1,9,.46,39.35,39.35,0,0,1,7.2,1.07c.41.13.62.78.62,1.93a7.56,7.56,0,0,1-.59,2.73c-.49,1.24-1.06,1.86-1.74,1.86-1.81-.25-4.53-.62-8.17-1.07a39.59,39.59,0,0,0-4.36-.25c-3.52,0-5.36.68-5.5,2"></path><path class="cls-1" d="M367.15,75.45c2.44-.16,5.07-1.63,7.81-4.35,1.26-1.24,2.23-2.14,2.89-2.66l0,0,0,0a3.76,3.76,0,0,0,1.18-2.79c0-3.33-2.44-6.77-7.45-10.53a25.35,25.35,0,0,0-6.78-3.65c-1.24-.42-5-1.7-5.83-2.1a9.63,9.63,0,0,1-4.26-3.5,6.62,6.62,0,0,1-.84-3.48,7.14,7.14,0,0,1,2.25-5.39c1.64-1.56,3.93-2.39,7-2.51a86,86,0,0,1,8.86.45,43.1,43.1,0,0,1,6.67,1,4.2,4.2,0,0,1,.07.86,6.5,6.5,0,0,1-.52,2.29,2.51,2.51,0,0,1-.63,1.09l-8-1.05a42.08,42.08,0,0,0-4.51-.26c-1.57,0-6.36,0-6.69,3.09V42c0,2,2.11,3.66,6.84,5.24l3.56,1.24C375.33,51,380,55,382.65,60.32a12.41,12.41,0,0,1,1.6,5.4,9.9,9.9,0,0,1-.75,3.68c-.26.61-1,1.67-3.12,3.27l-.05,0-5.18,4.93a9,9,0,0,1-6.2,2.14c-8.49,0-14.57-3-18.57-9.23a2.45,2.45,0,0,1-.2-.56,2.51,2.51,0,0,1,1-1.79,3.16,3.16,0,0,1,2.06-1c.31,0,.49.06.52.12a19.48,19.48,0,0,0,5.66,5.52A14.9,14.9,0,0,0,367,75.45h.12M363.1,32a12.65,12.65,0,0,0-8.55,3.18,9.52,9.52,0,0,0-3,7.11A9,9,0,0,0,352.75,47,11.93,11.93,0,0,0,358,51.46c.69.33,2.51,1,6.08,2.21a22.94,22.94,0,0,1,6.13,3.3c4.3,3.23,6.48,6.12,6.48,8.61a1.33,1.33,0,0,1-.43,1c-.74.59-1.71,1.48-3,2.77-2.3,2.29-4.39,3.51-6.23,3.65a12.48,12.48,0,0,1-6.3-2.18,16.76,16.76,0,0,1-5-4.84,2.81,2.81,0,0,0-2.51-1.17,5.52,5.52,0,0,0-3.66,1.55A4.79,4.79,0,0,0,347.78,70a3.8,3.8,0,0,0,.47,1.65l0,.07,0,.06c4.41,6.9,11.36,10.4,20.63,10.4a11.48,11.48,0,0,0,7.8-2.76s4.85-4.6,5.15-4.9a11.61,11.61,0,0,0,3.8-4.17,12.42,12.42,0,0,0,.95-4.54v-.24a14.89,14.89,0,0,0-1.85-6.3c-2.94-5.93-8-10.32-15.14-13.06L366,45c-4.49-1.51-5.11-2.62-5.2-2.91.12-.28,1-.89,4.29-.89a39.27,39.27,0,0,1,4.23.24l8.14,1.07h.16c1.21,0,2.17-.89,2.85-2.62a8.88,8.88,0,0,0,.68-3.17c0-.64,0-2.61-1.47-3.08a39.92,39.92,0,0,0-7.45-1.12A88,88,0,0,0,363.1,32"></path><path class="cls-2" d="M341.29,21.62s-4.38-8.15-8.83-6.28.72,18.15,2.91,22.23S353.45,29,352.44,22.3s-9.37-4.44-11.15-.68"></path><polygon class="cls-1" points="70.6 136.81 70.6 118.3 46.8 118.3 46.8 136.81 40.69 136.81 40.69 94.32 46.8 94.32 46.8 112.7 70.6 112.7 70.6 94.32 76.76 94.32 76.76 136.81 70.6 136.81"></polygon><path class="cls-1" d="M105.66,99.49c-9.72,0-16.7,6.79-16.7,16.2,0,9.15,7.1,16,16.5,16s16.64-7,16.64-16.26c0-9-7.17-15.94-16.44-15.94m-.57,37.87c-12.83,0-22.42-9.28-22.42-21.67,0-12.71,9.59-21.93,22.73-21.93s22.93,9.29,22.93,21.81-9.85,21.79-23.24,21.79"></path><path class="cls-1" d="M143.76,137.36a18.69,18.69,0,0,1-11.46-3.93v-7.72a15,15,0,0,0,3.49,3.49,13.75,13.75,0,0,0,7.91,2.74c3.8,0,6.66-2.37,6.66-5.6,0-2.62-2-5.24-5.61-7.35l-4.6-2.81c-5.73-3.42-8-6.6-8-11.15,0-6.67,5.12-11.27,12.52-11.27a17,17,0,0,1,9.78,3v6.91c-3-2.92-6.41-4.42-9.9-4.42-4,0-6.79,2.06-6.79,4.92,0,2.56,1.74,4.61,5.92,7.1l4.67,2.74c5.17,3,7.78,7,7.78,11.78,0,6.85-5,11.58-12.33,11.58"></path><path class="cls-1" d="M175.63,99.68h-6.3v13.26H176c5,0,7.72-2.43,7.72-6.72s-2.61-6.54-8.09-6.54m6,17.88a26.44,26.44,0,0,1-7.85.8h-4.49v18.45h-6.1V94.32h13.45c8.17,0,13.33,4.68,13.33,12a11.14,11.14,0,0,1-8.34,11.22"></path><rect class="cls-1" x="196.94" y="94.32" width="6.11" height="42.49"></rect><polygon class="cls-1" points="228.73 99.68 228.73 136.81 222.63 136.81 222.63 99.68 208.05 99.68 208.05 94.32 243.56 94.32 243.56 99.68 228.73 99.68"></polygon><path class="cls-1" d="M257.41,103.41l-6.35,15.39h13.21Zm15,33.4-5.67-12.53H248.69l-5.35,12.53h-6.23l18.25-42.73h4.29l19,42.73Z"></path><polygon class="cls-1" points="284.05 136.81 284.05 94.32 290.21 94.32 290.21 131.25 309.33 131.25 309.33 136.81 284.05 136.81"></polygon><polygon class="cls-3" points="43.65 160.7 43.65 170.16 40.72 170.16 40.72 149.79 51.59 149.79 51.59 152.42 43.65 152.42 43.65 158.07 51.59 158.07 51.59 160.7 43.65 160.7"></polygon><path class="cls-3" d="M72.62,152.27a7.73,7.73,0,1,0-.08,15.45,7.73,7.73,0,1,0,.08-15.45m-.26,18.17C66.2,170.44,61.6,166,61.6,160s4.6-10.52,10.91-10.52,11,4.46,11,10.46-4.72,10.46-11.14,10.46"></path><path class="cls-3" d="M112,165.35a6.54,6.54,0,0,1-1.85,2.88,9.37,9.37,0,0,1-6.42,2.21c-4.16,0-7.32-1.92-8.3-5a10.33,10.33,0,0,1-.49-4.09V149.79H97.9v11.56c0,2.7.27,3.77,1.29,4.78a6.05,6.05,0,0,0,4.54,1.71c3,0,5.22-1.5,5.64-3.74a16.54,16.54,0,0,0,.21-2.75V149.79h2.9v11.56a10.61,10.61,0,0,1-.45,4"></path><polygon class="cls-3" points="141.31 170.16 127.69 154.48 127.69 170.16 124.95 170.16 124.95 149.79 127.3 149.79 141.04 165.6 141.04 149.79 143.82 149.79 143.82 170.16 141.31 170.16"></polygon><path class="cls-3" d="M168,153.14c-1.37-.63-2.21-.75-4.9-.75h-3.67v15.15h3.76a11.56,11.56,0,0,0,3.85-.42,7.29,7.29,0,0,0,5.2-7.29,7,7,0,0,0-4.24-6.69m.36,16.4c-1.61.54-2.27.66-5.38.66l-6.45,0V149.79h6.87a16.77,16.77,0,0,1,3.77.3,9.41,9.41,0,0,1,2.77.93,10,10,0,0,1,5.32,9,10.07,10.07,0,0,1-6.9,9.56"></path><path class="cls-3" d="M194.7,154.15l-3,7.38H198Zm7.2,16-2.72-6h-8.67l-2.56,6h-3l8.75-20.49h2.07l9.11,20.49Z"></path><polygon class="cls-3" points="223.62 152.36 223.62 170.16 220.69 170.16 220.69 152.36 213.7 152.36 213.7 149.79 230.73 149.79 230.73 152.36 223.62 152.36"></polygon><rect class="cls-3" x="241.81" y="149.79" width="2.93" height="20.38"></rect><path class="cls-3" d="M267.68,152.27a7.73,7.73,0,1,0-.09,15.45,7.73,7.73,0,1,0,.09-15.45m-.27,18.17c-6.14,0-10.75-4.45-10.75-10.4s4.61-10.52,10.9-10.52,11,4.46,11,10.46-4.72,10.46-11.15,10.46"></path><polygon class="cls-3" points="306.91 170.16 293.29 154.48 293.29 170.16 290.54 170.16 290.54 149.79 292.9 149.79 306.64 165.6 306.64 149.79 309.42 149.79 309.42 170.16 306.91 170.16"></polygon><path class="cls-1" d="M221.09,13H228l-3.6-8.07Zm14.47,9.44h-3.27l-3-6.57h-9.48L217,22.41h-3.27L223.35,0h2.25Z"></path><rect class="cls-1" x="237" y="0.13" width="2.91" height="22.27"></rect><path class="cls-1" d="M245.91,19.5a11.61,11.61,0,0,0,2.94.46,4.46,4.46,0,0,0,4.48-4.77c0-3.11-1.64-5.13-4.09-5.13a4.63,4.63,0,0,0-3.33,1.5V19.5m0-10.71A6.68,6.68,0,0,1,250,7.45c3.65,0,6.33,3.1,6.33,7.31,0,5-2.94,7.94-7.84,7.94A13.65,13.65,0,0,1,243,21.59V.13h2.9Z"></path><path class="cls-1" d="M268.29,13.59c-.1-2.22-1.37-3.63-3.43-3.63-2.22,0-3.56,1.31-4,3.63h7.39M270.9,21a9.59,9.59,0,0,1-5.85,1.73c-4.57,0-7.12-3.76-7.12-7.81,0-4.44,2.81-7.44,6.86-7.44,3.89,0,6.37,2.64,6.37,8.06H260.84c.46,2.91,2.12,4.41,4.93,4.41a9.33,9.33,0,0,0,5.13-1.76Z"></path><path class="cls-1" d="M276.58,7.74v3.37h.07c1.47-2.59,2.87-3.66,4.25-3.66a5.08,5.08,0,0,1,3.49,1.7l-1.54,2.51a4.78,4.78,0,0,0-2.71-1.44c-2,0-3.56,2-3.56,4.51v7.68h-2.9V7.74h2.9"></path><path class="cls-1" d="M289.64,7.74h4.64v2.61h-4.64v7.52a2,2,0,0,0,2.09,2.22A6.33,6.33,0,0,0,295,19v2.71a8.79,8.79,0,0,1-3.53,1c-3.17,0-4.77-2-4.77-4.61V10.35h-2.54V10l5.45-5.33v3"></path><path class="cls-1" d="M304.12,15.15c-2.48.85-4.64,1.7-4.64,3.44a2,2,0,0,0,2.09,2.05,3.73,3.73,0,0,0,2.55-1.21V15.15m5,6.41c-1.33.88-1.89,1.14-2.8,1.14-1.28,0-2-.46-2.23-1.5a6.31,6.31,0,0,1-3.95,1.5,3.54,3.54,0,0,1-3.59-3.59c0-2.91,2.65-3.79,5-4.64l2.58-.92v-.78c0-1.83-.88-2.58-2.65-2.58a6,6,0,0,0-4.63,2.42V9.44a6,6,0,0,1,4.86-2c3,0,5.32,1.5,5.32,4.83v7.54c0,.56.2.76.56.76a3.51,3.51,0,0,0,1.53-.79Z"></path><path class="cls-1" d="M395.64,125.57h-26.9V98.68h26.9Zm2.18-31.25H364.39v35.61H400V94.32Z"></path><path class="cls-1" d="M355.1,165.78H328.2v-26.9h26.9Zm2.17-31.25H323.84v35.61h35.62V134.53Z"></path><path class="cls-1" d="M395.65,165.78h-26.9V138.89h26.9Zm2.18-31.25H364.4v35.61H400V134.53Z"></path><path class="cls-1" d="M355.11,125.59h-26.9V98.69h26.9Zm2.18-31.25H323.86v35.6h35.61V94.34Z"></path><rect class="cls-2" x="331.84" y="102.31" width="19.66" height="19.64"></rect><path class="cls-4" d="M341.87,108.74s-2.85-5.31-5.77-4.09.47,11.85,1.9,14.51,11.82-5.6,11.15-10-6.12-2.9-7.28-.46"></path></g></g></svg>