<svg xmlns="http://www.w3.org/2000/svg" xmlns:xlink="http://www.w3.org/1999/xlink" width="1000" zoomAndPan="magnify" viewBox="0 0 750 299.999988" height="400" preserveAspectRatio="xMidYMid meet" version="1.0"><defs><g/><clipPath id="c480573e2d"><rect x="0" width="728" y="0" height="206"/></clipPath></defs><g transform="matrix(1, 0, 0, 1, 11, 47)"><g clip-path="url(#c480573e2d)"><g fill="#000000" fill-opacity="1"><g transform="translate(0.572329, 161.313568)"><g><path d="M 63.984375 0 L 38.28125 0 L 1.921875 -107.65625 L 24.515625 -107.65625 L 50.65625 -27.390625 L 52.5 -27.390625 L 78.265625 -107.65625 L 100.28125 -107.65625 Z M 63.984375 0 "/></g></g></g><g fill="#000000" fill-opacity="1"><g transform="translate(99.904997, 161.313568)"><g><path d="M 58.6875 1.546875 C 48.820312 1.546875 40.117188 -0.460938 32.578125 -4.484375 C 25.046875 -8.515625 19.144531 -14.664062 14.875 -22.9375 C 10.601562 -31.207031 8.46875 -41.503906 8.46875 -53.828125 C 8.46875 -66.148438 10.601562 -76.445312 14.875 -84.71875 C 19.144531 -92.988281 25.046875 -99.132812 32.578125 -103.15625 C 40.117188 -107.175781 48.820312 -109.1875 58.6875 -109.1875 C 68.550781 -109.1875 77.238281 -107.1875 84.75 -103.1875 C 92.257812 -99.1875 98.132812 -93.039062 102.375 -84.75 C 106.625 -76.457031 108.75 -66.148438 108.75 -53.828125 C 108.75 -41.503906 106.625 -31.191406 102.375 -22.890625 C 98.132812 -14.597656 92.257812 -8.453125 84.75 -4.453125 C 77.238281 -0.453125 68.550781 1.546875 58.6875 1.546875 Z M 58.6875 -16.9375 C 67.8125 -16.9375 74.78125 -19.867188 79.59375 -25.734375 C 84.40625 -31.597656 86.8125 -40.960938 86.8125 -53.828125 C 86.8125 -66.679688 84.40625 -76.050781 79.59375 -81.9375 C 74.78125 -87.832031 67.8125 -90.78125 58.6875 -90.78125 C 49.507812 -90.78125 42.5 -87.832031 37.65625 -81.9375 C 32.820312 -76.050781 30.40625 -66.679688 30.40625 -53.828125 C 30.40625 -40.960938 32.820312 -31.597656 37.65625 -25.734375 C 42.5 -19.867188 49.507812 -16.9375 58.6875 -16.9375 Z M 58.6875 -16.9375 "/></g></g></g><g fill="#000000" fill-opacity="1"><g transform="translate(217.204458, 161.313568)"><g><path d="M 35.265625 -107.65625 L 35.265625 -17.8125 L 83.640625 -17.8125 L 83.640625 0 L 13.984375 0 L 13.984375 -107.65625 Z M 35.265625 -107.65625 "/></g></g></g><g fill="#000000" fill-opacity="1"><g transform="translate(288.70323, 161.313568)"><g><path d="M 86.296875 -107.65625 L 86.296875 -89.75 L 55.21875 -89.75 L 55.21875 0 L 34.015625 0 L 34.015625 -89.75 L 2.9375 -89.75 L 2.9375 -107.65625 Z M 86.296875 -107.65625 "/></g></g></g><g fill="#000000" fill-opacity="1"><g transform="translate(365.650979, 161.313568)"><g><path d="M 51.546875 -43.296875 L 6.40625 -43.296875 L 6.40625 -61.265625 L 51.546875 -61.265625 Z M 51.546875 -43.296875 "/></g></g></g><g fill="#000000" fill-opacity="1"><g transform="translate(420.066684, 161.313568)"><g><path d="M 103.3125 0 L 80.921875 0 L 72.828125 -24.8125 L 31.59375 -24.8125 L 23.484375 0 L 1.625 0 L 38.796875 -107.65625 L 66.125 -107.65625 Z M 51.171875 -85.1875 L 37.328125 -42.703125 L 66.9375 -42.703125 L 53.015625 -85.1875 Z M 51.171875 -85.1875 "/></g></g></g><g fill="#000000" fill-opacity="1"><g transform="translate(522.565656, 161.313568)"><g><path d="M 52.28125 1.546875 C 43.289062 1.546875 35.519531 -0.5 28.96875 -4.59375 C 22.414062 -8.695312 17.359375 -14.882812 13.796875 -23.15625 C 10.242188 -31.425781 8.46875 -41.648438 8.46875 -53.828125 C 8.46875 -66.097656 10.601562 -76.367188 14.875 -84.640625 C 19.144531 -92.910156 25.070312 -99.066406 32.65625 -103.109375 C 40.238281 -107.160156 49.035156 -109.1875 59.046875 -109.1875 C 69.359375 -109.1875 78.144531 -107.269531 85.40625 -103.4375 C 92.675781 -99.613281 97.785156 -93.925781 100.734375 -86.375 L 85.1875 -76.9375 L 83.34375 -77.015625 C 81.132812 -81.828125 78.03125 -85.335938 74.03125 -87.546875 C 70.03125 -89.753906 65.035156 -90.859375 59.046875 -90.859375 C 49.773438 -90.859375 42.679688 -87.925781 37.765625 -82.0625 C 32.859375 -76.195312 30.40625 -66.785156 30.40625 -53.828125 C 30.40625 -40.816406 32.695312 -31.363281 37.28125 -25.46875 C 41.875 -19.582031 48.664062 -16.640625 57.65625 -16.640625 C 65.40625 -16.640625 71.117188 -18.378906 74.796875 -21.859375 C 78.484375 -25.347656 80.328125 -30.554688 80.328125 -37.484375 L 80.328125 -42.109375 L 54.859375 -42.109375 L 54.859375 -59.421875 L 101.46875 -59.421875 L 101.46875 0 L 81.140625 0 L 81.140625 -14.4375 L 79.59375 -14.65625 C 77.382812 -9.5 74.035156 -5.507812 69.546875 -2.6875 C 65.054688 0.132812 59.300781 1.546875 52.28125 1.546875 Z M 52.28125 1.546875 "/></g></g></g><g fill="#000000" fill-opacity="1"><g transform="translate(634.857972, 161.313568)"><g><path d="M 35.265625 -47.265625 L 35.265625 -17.8125 L 86.65625 -17.8125 L 86.65625 0 L 13.984375 0 L 13.984375 -107.65625 L 85.484375 -107.65625 L 85.484375 -89.828125 L 35.265625 -89.828125 L 35.265625 -64.640625 L 79.15625 -64.640625 L 79.15625 -47.265625 Z M 35.265625 -47.265625 "/></g></g></g></g></g></svg>